Coordinates
version=1
nRows=16
nColumns=40
inDegrees=yes

Units are S.I. units (second, meters, Newtons, ...)
Angles are in degrees.

endheader
time	pelvis_tilt	pelvis_list	pelvis_rotation	pelvis_tx	pelvis_ty	pelvis_tz	hip_flexion_r	hip_adduction_r	hip_rotation_r	knee_angle_r	knee_angle_r_beta	ankle_angle_r	subtalar_angle_r	mtp_angle_r	hip_flexion_l	hip_adduction_l	hip_rotation_l	knee_angle_l	knee_angle_l_beta	ankle_angle_l	subtalar_angle_l	mtp_angle_l	lumbar_extension	lumbar_bending	lumbar_rotation	arm_flex_r	arm_add_r	arm_rot_r	elbow_flex_r	pro_sup_r	wrist_flex_r	wrist_dev_r	arm_flex_l	arm_add_l	arm_rot_l	elbow_flex_l	pro_sup_l	wrist_flex_l	wrist_dev_l
     55.93250000	     -7.40666826	     -4.87881263	      3.19292268	      0.88863535	      0.91847050	      0.45467293	     11.48997016	     -0.80847567	    -10.28838856	     37.01206775	     37.01206775	     14.46399680	    -10.57895331	     -4.81039007	     29.33492381	     -5.53817016	     -1.33390992	     24.83595401	     24.83595401	      6.24084945	    -11.59243358	      0.95710235	     -8.53242152	      3.06012072	      3.61022608	     28.53046700	    -12.87298982	      7.98617590	     91.92263081	     44.75901970	      0.00000000	      0.00000000	     -0.99068940	     -9.04417476	     -2.04047232	     30.23061186	     44.94381062	      0.00000000	      0.00000000
     55.94485714	     -7.44142611	     -4.83005241	      2.87172588	      0.88866822	      0.91941973	      0.45314860	     13.38946969	     -1.12141039	     -9.66805292	     40.73126425	     40.73126425	     12.52825824	    -12.91678875	     -5.40159376	     28.73980369	     -5.54196533	     -1.72958696	     24.63537663	     24.63537663	      6.68039620	    -11.55645167	      0.89127727	     -8.50256275	      2.96600939	      3.56705105	     27.28355320	    -12.61404774	      8.37923891	     88.96355044	     44.84083229	      0.00000000	      0.00000000	      0.13205345	     -9.22033832	     -1.95239962	     30.55098917	     44.96277934	      0.00000000	      0.00000000
     55.95721429	     -7.33390029	     -4.74902806	      2.55725785	      0.88861636	      0.92041113	      0.45174580	     15.19416354	     -1.45390334	     -9.11119649	     44.42705720	     44.42705720	     10.47556298	    -15.03026841	     -6.03352897	     28.01157697	     -5.53130187	     -2.07721460	     24.47352463	     24.47352463	      7.09803062	    -11.40175928	      0.62548165	     -8.64721913	      2.79880061	      2.85683249	     26.72924686	    -11.69217412	      9.11621248	     84.56192929	     44.96715403	      0.00000000	      0.00000000	      0.92978645	     -9.59603279	     -1.71854604	     30.98740601	     44.98280888	      0.00000000	      0.00000000
     55.96957143	     -7.24147752	     -4.55508887	      2.25797801	      0.88847720	      0.92114050	      0.45025900	     17.14112778	     -1.99638026	     -8.73714806	     48.26982790	     48.26982790	      8.81084250	    -16.50942104	     -5.68242584	     27.29738691	     -5.37938082	     -2.48477405	     24.30681987	     24.30681987	      7.49479269	    -11.34565025	      0.42712455	     -8.87962942	      2.51941762	      2.93121198	     25.12110634	    -11.80927075	      9.53848836	     82.89424064	     45.00207712	      0.00000000	      0.00000000	      2.10934915	     -9.84565753	     -1.74712778	     31.62675546	     45.01240947	      0.00000000	      0.00000000
     55.98192857	     -7.13231084	     -4.46742037	      2.01119392	      0.88825011	      0.92180472	      0.44882610	     19.17289468	     -2.30861118	     -8.26761961	     52.15152341	     52.15152341	      8.37458735	    -17.41165819	     -1.60614456	     26.60457599	     -5.31441643	     -2.79922776	     24.14270221	     24.14270221	      7.66907559	    -11.35796025	     -0.17634340	     -8.95597446	      2.45118950	      2.28531323	     24.65388751	    -11.11898177	     10.18596416	     77.86361457	     45.14781419	      0.00000000	      0.00000000	      2.82717762	    -10.32621070	     -1.31465186	     32.60320179	     45.02446183	      0.00000000	      0.00000000
     55.99428571	     -7.02211819	     -4.27903652	      1.78589132	      0.88797650	      0.92231780	      0.44722966	     21.08974950	     -2.82478751	     -7.96576435	     55.59960547	     55.59960547	      7.13493250	    -18.28090382	     -0.52573630	     25.93786248	     -5.11794623	     -3.12364227	     24.03842255	     24.03842255	      7.96835337	    -11.35098972	     -0.34014524	     -9.18080645	      2.30679319	      2.46827207	     22.96710874	    -11.56412433	     10.49637637	     75.73344771	     45.20035727	      0.00000000	      0.00000000	      4.17536209	    -10.50807994	     -1.29528198	     33.37959933	     45.05461438	      0.00000000	      0.00000000
     56.00664286	     -6.79238127	     -4.19435653	      1.63214654	      0.88774340	      0.92291634	      0.44573595	     22.94042609	     -3.08226690	     -7.54543942	     58.99070995	     58.99070995	      7.49914412	    -18.57114148	      4.85122571	     25.19618050	     -4.98524770	     -3.22429508	     23.99701819	     23.99701819	      8.27153541	    -11.53477288	     -0.62390851	     -9.40299528	      2.27607119	      1.95979145	     22.34099454	    -10.99856539	     10.58632059	     70.70213086	     45.35792274	      0.00000000	      0.00000000	      5.24328112	    -10.98549092	     -0.70124482	     34.03092191	     45.03999003	      0.00000000	      0.00000000
     56.01900000	     -6.55688259	     -4.01685200	      1.55747596	      0.88753945	      0.92343274	      0.44397123	     24.52764431	     -3.62654151	     -7.41848404	     61.68803118	     61.68803118	      6.57140494	    -18.94006376	      5.34439283	     24.50124671	     -4.72986990	     -3.36020672	     24.05387984	     24.05387984	      8.67131187	    -11.57101311	     -0.77858752	     -9.77758417	      2.20726260	      1.74801644	     20.50460371	    -11.30128331	     10.89715374	     69.21947060	     45.38735153	      0.00000000	      0.00000000	      6.56190626	    -11.31620020	     -0.73876330	     34.71087814	     45.07046194	      0.00000000	      0.00000000
     56.03135714	     -6.40972529	     -3.97040068	      1.41235869	      0.88722970	      0.92395729	      0.44242806	     26.33126448	     -3.75609203	     -6.95373753	     64.27659760	     64.27659760	      7.20716521	    -19.04693500	     10.38755746	     23.84873567	     -4.57357717	     -3.27646573	     23.98414300	     23.98414300	      8.99090640	    -11.92958417	     -0.60964013	     -9.86886796	      2.31159892	      1.49671623	     20.06325101	    -11.00547782	     10.73516487	     63.23070124	     45.58111462	      0.00000000	      0.00000000	      7.61078358	    -11.68515450	      0.09401373	     35.57397600	     45.03459306	      0.00000000	      0.00000000
     56.04371429	     -6.18966238	     -3.93249336	      1.32834099	      0.88705360	      0.92454662	      0.44075726	     27.76948601	     -3.97255942	     -6.69893325	     66.12318517	     66.12318517	      6.94380031	    -19.17987284	     11.63630350	     23.16968105	     -4.42999391	     -3.23229783	     24.01556531	     24.01556531	      9.37823037	    -12.12403799	     -0.50356265	    -10.16680156	      2.45788990	      1.54859137	     18.54286227	    -11.50187261	     10.86389303	     60.24848934	     45.66055665	      0.00000000	      0.00000000	      8.88808231	    -11.86321160	      0.34930194	     36.66871947	     45.05663522	      0.00000000	      0.00000000
     56.05607143	     -6.07294473	     -3.87494631	      1.22953278	      0.88679184	      0.92505379	      0.43919670	     29.21692366	     -4.18870978	     -6.45679185	     67.48197393	     67.48197393	      6.54377069	    -19.25431308	     12.09841258	     22.58343568	     -4.26654238	     -3.21685841	     23.99568412	     23.99568412	      9.72258138	    -12.32384634	     -0.44135115	    -10.34613328	      2.57641238	      1.67100285	     16.80218123	    -12.12465345	     10.94537543	     57.89239764	     45.72604041	      0.00000000	      0.00000000	     10.24161604	    -11.99314491	      0.39436166	     37.57753948	     45.08456135	      0.00000000	      0.00000000
     56.06842857	     -5.89119459	     -3.91876925	      1.13528092	      0.88658007	      0.92580688	      0.43776248	     30.47578285	     -4.16567129	     -6.16683942	     68.34672108	     68.34672108	      6.67496425	    -19.28829931	     13.83638758	     21.90537030	     -4.16136690	     -2.94317323	     23.94390347	     23.94390347	     10.22130609	    -12.72172788	      0.22356456	    -10.53052187	      2.85552327	      1.26175741	     16.43261595	    -11.62786874	     10.19879522	     51.84771615	     45.94355968	      0.00000000	      0.00000000	     11.13160704	    -12.51841834	      1.13768319	     38.69246415	     45.07220161	      0.00000000	      0.00000000
     56.08078571	     -5.75533492	     -3.96068390	      0.98920883	      0.88642275	      0.92645866	      0.43648568	     31.62012991	     -4.12261619	     -5.89388821	     68.64543390	     68.64543390	      6.40531989	    -19.29538015	     13.87946256	     21.26317583	     -4.12510192	     -2.91453686	     23.87692635	     23.87692635	     10.57971180	    -12.87878004	      0.32830735	    -10.75931560	      3.12399086	      1.62179275	     14.54844343	    -12.41915683	     10.21749318	     49.67294984	     46.00284404	      0.00000000	      0.00000000	     12.42838079	    -12.54368894	      1.06839138	     39.89868894	     45.11705911	      0.00000000	      0.00000000
     56.09314286	     -5.62181030	     -4.01124650	      0.78407471	      0.88627851	      0.92719347	      0.43538659	     32.60688341	     -4.01241575	     -5.62964102	     68.38511467	     68.38511467	      6.17119764	    -19.27148780	     13.82683478	     20.57159810	     -4.10003322	     -2.86585406	     23.73752402	     23.73752402	     10.96529486	    -13.14829623	      0.58258171	    -10.98588854	      3.38719451	      2.01713151	     12.94953634	    -13.05630595	     10.03824794	     46.81595985	     46.09683666	      0.00000000	      0.00000000	     13.62103651	    -12.53552676	      1.05538464	     41.26573717	     45.15847675	      0.00000000	      0.00000000
     56.10550000	     -5.55438856	     -4.05303311	      0.58805465	      0.88612896	      0.92792056	      0.43445800	     33.47903138	     -3.90448052	     -5.43145925	     67.55503564	     67.55503564	      5.71135854	    -19.23482692	     12.94390149	     19.94953828	     -4.06252598	     -2.78880521	     23.60235418	     23.60235418	     11.54220808	    -13.32739107	      1.44976265	    -11.08103064	      3.63757111	      1.40851432	     12.89794198	    -12.31971829	      8.56382140	     40.59342226	     46.35768221	      0.00000000	      0.00000000	     13.78803571	    -13.25772330	      1.23691374	     43.62175378	     45.23129279	      0.00000000	      0.00000000
     56.11785714	     -5.48565961	     -4.10280563	      0.32442047	      0.88597826	      0.92861804	      0.43371910	     34.19240488	     -3.74576394	     -5.24438636	     66.21856415	     66.21856415	      5.23088182	    -19.16603223	     11.86709906	     19.29311419	     -4.08428778	     -2.87439470	     23.41328845	     23.41328845	     11.97042923	    -13.40288202	      1.84848327	    -11.26757697	      3.88079484	      1.47069008	     11.67901894	    -12.52326476	      7.55498737	     37.36269974	     46.47397749	      0.00000000	      0.00000000	     14.34801453	    -13.47086856	      0.70443807	     45.84991289	     45.39314762	      0.00000000	      0.00000000
